<?xml version="1.0" standalone="no"?>
<!DOCTYPE svg PUBLIC "-//W3C//DTD SVG 20010904//EN"
 "http://www.w3.org/TR/2001/REC-SVG-20010904/DTD/svg10.dtd">
<svg version="1.0" xmlns="http://www.w3.org/2000/svg"
 width="316.000000pt" height="72.000000pt" viewBox="0 0 316.000000 72.000000"
 preserveAspectRatio="xMidYMid meet">
<metadata>
Created by potrace 1.16, written by Peter Selinger 2001-2019
</metadata>
<g transform="translate(0.000000,72.000000) scale(0.100000,-0.100000)"
fill="#F1F1F1" stroke="none">
<path d="M229 645 c-3 -2 -14 -6 -25 -8 -41 -6 -102 -50 -124 -89 -19 -33 -22
-50 -17 -95 5 -46 13 -64 48 -105 67 -80 59 -128 -28 -150 -26 -6 -43 -16 -43
-25 0 -8 15 -39 32 -69 26 -43 38 -54 58 -54 42 0 125 45 158 86 67 80 64 157
-9 248 -66 82 -62 120 12 132 22 4 39 10 39 15 0 5 -12 33 -27 64 -20 41 -33
55 -48 55 -12 0 -24 -2 -26 -5z"/>
<path d="M780 641 c-47 -15 -87 -40 -119 -76 -26 -30 -31 -44 -31 -85 0 -62
12 -94 55 -142 19 -21 35 -41 36 -46 0 -4 2 -16 4 -27 6 -28 -22 -54 -72 -67
-52 -13 -54 -24 -11 -95 35 -58 44 -61 107 -38 102 36 151 100 151 196 0 46
-5 59 -50 119 -68 92 -65 124 14 137 40 6 43 13 21 51 -8 15 -19 39 -25 55
-10 28 -30 33 -80 18z m-7 -306 c20 -57 39 -58 36 -1 -2 25 0 49 4 52 4 4 7
-4 7 -17 0 -14 13 -36 30 -52 35 -34 45 -63 31 -97 -6 -15 -10 -18 -10 -9 -1
9 -10 24 -22 35 l-21 18 6 -61 c6 -64 -2 -84 -24 -58 -7 9 -21 13 -31 10 -14
-5 -22 1 -29 20 -14 36 -13 38 14 33 18 -4 26 0 29 14 3 10 1 18 -4 18 -5 0
-9 12 -9 26 0 21 -3 24 -13 15 -8 -6 -17 -8 -20 -4 -12 11 -7 23 9 23 14 0 15
2 3 16 -15 18 -22 81 -8 67 5 -5 15 -26 22 -48z"/>
<path d="M1605 641 c-49 -13 -88 -37 -133 -83 -136 -140 -92 -395 82 -477 184
-86 386 33 403 236 15 178 -94 317 -258 328 -35 2 -77 1 -94 -4z m75 -27 c0
-17 45 -19 56 -3 16 26 112 -30 151 -88 12 -18 18 -33 14 -33 -5 0 -11 7 -15
15 -8 23 -25 18 -36 -10 -5 -14 -13 -25 -17 -25 -17 1 -63 50 -66 71 -2 13 -9
25 -15 27 -15 5 -16 -24 -2 -33 8 -5 15 -46 8 -45 -32 6 -98 29 -84 29 19 1
19 1 0 24 -17 19 -44 69 -44 82 0 6 34 12 43 8 4 -2 7 -11 7 -19z m-150 -78
c0 -21 6 -36 16 -40 11 -4 14 -1 12 14 -5 31 15 28 23 -4 6 -22 3 -35 -16 -60
-13 -17 -25 -44 -27 -61 l-3 -30 -24 40 c-15 25 -26 35 -29 26 -2 -7 0 -16 5
-20 14 -9 23 -50 13 -56 -5 -3 -11 -1 -15 5 -3 5 -17 7 -29 4 -21 -5 -24 -1
-29 41 -5 30 -2 58 7 79 19 46 36 54 37 19 1 -17 3 -21 6 -10 2 9 11 17 19 17
8 0 14 7 14 16 0 8 -4 13 -9 10 -14 -9 -21 20 -8 33 21 21 37 12 37 -23z m208
-66 c82 -50 80 -181 -2 -235 -73 -48 -175 7 -178 96 -2 62 2 77 29 109 45 53
96 63 151 30z"/>
<path d="M2205 641 c-88 -23 -143 -71 -187 -161 -31 -65 -31 -197 0 -261 31
-63 77 -107 141 -137 49 -22 62 -24 142 -19 48 3 97 11 108 17 16 8 32 8 62 0
25 -7 45 -8 51 -2 5 5 7 73 6 153 l-3 144 -85 0 -85 0 3 -69 c3 -81 -1 -86
-75 -86 -44 0 -58 5 -85 29 -31 28 -33 33 -33 100 0 66 2 73 30 98 16 16 32
28 35 29 3 0 13 4 23 9 26 11 74 -1 112 -31 23 -17 39 -23 49 -17 23 13 66 74
66 95 0 24 -46 70 -92 91 -42 20 -140 30 -183 18z"/>
<path d="M2747 633 c-60 -20 -131 -87 -160 -151 -26 -57 -30 -187 -8 -242 73
-175 266 -239 422 -140 37 24 108 106 101 117 -1 2 5 17 12 35 18 43 18 154
-1 198 -8 19 -15 37 -15 40 -1 3 -12 21 -25 41 -23 35 -66 72 -113 97 -40 22
-157 25 -213 5z m150 -160 c47 -22 77 -87 68 -144 -4 -22 -13 -43 -21 -46 -8
-3 -12 -9 -9 -13 10 -16 -53 -50 -90 -50 -53 0 -92 27 -111 77 -20 53 -13 101
23 144 43 51 82 60 140 32z"/>
<path d="M984 632 c-21 -3 -22 -5 -21 -278 0 -311 -6 -289 84 -293 94 -4 93
-6 86 115 l-6 106 104 -3 104 -3 3 77 3 76 -103 3 -103 3 0 30 0 30 118 -3
117 -3 -1 28 c0 15 -4 48 -7 73 l-7 45 -175 0 c-96 0 -185 -1 -196 -3z m113
-47 c20 -43 33 -45 33 -5 0 25 4 30 26 30 19 0 28 -7 35 -30 14 -40 27 -38 35
5 l6 35 57 -2 57 -1 2 -54 2 -53 -40 0 c-34 0 -41 4 -46 25 -3 14 -10 25 -15
25 -5 0 -9 -11 -9 -25 0 -29 -24 -34 -39 -7 -6 9 -11 12 -11 5 0 -6 -12 -13
-27 -15 -38 -4 -61 -47 -45 -82 9 -21 19 -26 46 -26 36 0 91 -37 69 -46 -7 -3
-13 -18 -13 -32 0 -21 -3 -24 -10 -12 -8 12 -12 11 -32 -7 -25 -23 -40 -20
-51 11 -5 13 -3 17 8 13 8 -4 17 -1 21 5 8 13 -27 41 -38 30 -13 -13 -20 -137
-10 -175 6 -21 6 -35 1 -32 -5 4 -9 2 -9 -4 0 -5 5 -13 10 -16 6 -3 10 -19 10
-36 0 -40 -32 -39 -71 3 -22 25 -29 28 -29 15 0 -10 7 -20 15 -23 24 -9 18
-24 -10 -24 -14 0 -29 8 -35 19 -14 26 -13 101 1 101 7 0 9 -10 5 -25 -6 -23
-5 -24 19 -13 28 13 32 26 10 34 -8 4 -15 15 -15 25 0 10 -7 19 -15 19 -10 0
-15 10 -15 30 0 42 22 38 49 -10 12 -22 26 -40 30 -40 11 0 21 51 21 102 0 25
5 41 15 44 26 10 16 44 -25 86 -46 47 -50 57 -15 34 37 -24 50 -20 31 9 -15
23 -14 29 7 26 10 -1 9 13 -2 25 -4 5 -13 24 -19 42 -15 44 4 42 25 -3z"/>
<path d="M393 350 l0 -280 83 0 84 0 0 128 c0 70 2 196 5 280 l5 152 -88 0
-88 0 -1 -280z m98 148 l25 -30 17 23 18 24 -12 -24 c-8 -16 -8 -26 -1 -30 11
-7 10 -116 -1 -127 -3 -4 -12 5 -18 20 -12 27 -13 27 -24 6 -10 -18 -11 -16
-10 20 0 22 3 40 8 40 4 0 7 -6 8 -12 0 -10 2 -10 6 0 4 11 -33 51 -48 52 -4
0 -9 -16 -11 -35 -2 -19 -1 -35 3 -35 13 0 19 -31 9 -49 -6 -13 -5 -24 6 -39
9 -13 11 -22 5 -22 -6 0 -11 -16 -11 -35 0 -19 5 -35 11 -35 7 0 9 10 7 24 -5
23 17 45 30 31 3 -3 0 -5 -6 -5 -15 0 -16 -27 -1 -36 7 -4 16 1 21 10 11 20
28 21 28 1 0 -8 -6 -14 -12 -12 -9 1 -13 -10 -13 -33 0 -19 5 -34 10 -33 6 1
11 -16 13 -38 3 -43 -5 -47 -53 -29 -18 7 -24 7 -20 0 4 -7 -9 -10 -35 -8
l-42 3 7 85 c13 164 17 204 21 211 2 4 0 10 -5 14 -7 4 -7 15 0 32 7 18 6 30
-1 37 -13 13 -13 39 0 31 6 -3 10 1 10 9 0 9 -4 16 -10 16 -5 0 -10 5 -10 10
0 20 55 -2 81 -32z"/>
</g>
</svg>
